<svg xmlns="http://www.w3.org/2000/svg" viewBox="0 0 640 400" role="img" aria-label="FRANKFURT GORKHAS — cricket pitch">
  <rect width="640" height="400" fill="#0A1F3D"/>
  <rect width="640" height="8" fill="#C8102E"/>
  <ellipse cx="320" cy="230" rx="250" ry="130" fill="#16351C"/>
  <ellipse cx="320" cy="230" rx="220" ry="108" fill="#1F4A28"/>
  <rect x="268" y="130" width="104" height="200" rx="6" fill="#E6D7A8"/>
  <g stroke="#5A4A28" stroke-width="4" stroke-linecap="round">
    <path d="M292 140v22M320 140v22M348 140v22M290 140h56"/>
    <path d="M292 308v22M320 308v22M348 308v22M290 330h56"/>
  </g>
  <circle cx="366" cy="228" r="16" fill="#C8102E"/>
  <path d="M359 216c4 4 4 18 0 24M373 216c-4 4-4 18 0 24" stroke="#FAF6EE" stroke-width="1.6" stroke-linecap="round"/>
  <path d="M86 250 l34 -78 l10 6 l-34 78 z" fill="#C48A3A"/>
  <path d="M118 168 l8 5 l12 -26 l-8 -5 z" fill="#8B5A2B"/>
  <text x="320" y="64" text-anchor="middle" fill="#FAF6EE" font-family="Arial, sans-serif" font-size="22" font-weight="700">FRANKFURT GORKHAS</text>
</svg>
